# Blender v2.92.0 OBJ File: 'Lamp Model.blend'
# www.blender.org
mtllib Lamp Model.mtl
o Cube_Cube.001
v 0.000000 -0.000000 1.000000
v 0.000000 0.000000 -1.000000
v 0.000000 -0.375000 1.000000
v 0.000000 -0.375000 -1.000000
v -0.375000 0.000000 -1.000000
v -0.375000 -0.375000 1.000000
v -0.375000 -0.000000 1.000000
v -0.375000 -0.375000 -1.000000
vt 0.875000 0.531250
vt 0.875000 0.625000
vt 0.125000 0.625000
vt 0.125000 0.531250
vt 0.218750 0.375000
vt 0.125000 0.375000
vt 0.125000 0.281250
vt 0.218750 0.281250
vt 0.875000 0.750000
vt 0.125000 0.750000
vt 0.125000 0.656250
vt 0.875000 0.656250
vt 0.781250 0.375000
vt 0.781250 0.281250
vt 0.875000 0.281250
vt 0.875000 0.375000
vt 0.875000 0.375000
vt 0.125000 0.375000
vt 0.125000 0.281250
vt 0.875000 0.281250
vt 0.875000 0.500000
vt 0.125000 0.500000
vt 0.125000 0.406250
vt 0.875000 0.406250
vn 1.0000 0.0000 0.0000
vn 0.0000 0.0000 1.0000
vn 0.0000 1.0000 0.0000
vn 0.0000 0.0000 -1.0000
vn -1.0000 0.0000 0.0000
vn 0.0000 -1.0000 -0.0000
usemtl Material
s off
f 4/1/1 2/2/1 1/3/1 3/4/1
f 1/5/2 7/6/2 6/7/2 3/8/2
f 5/9/3 7/10/3 1/11/3 2/12/3
f 2/13/4 4/14/4 8/15/4 5/16/4
f 7/17/5 5/18/5 8/19/5 6/20/5
f 4/21/6 3/22/6 6/23/6 8/24/6
