# Blender v2.90.1 OBJ File: ''
# www.blender.org
mtllib floor.mtl
o Cube_Cube.002
v -16.000000 -2.000000 16.000000
v -16.000000 2.000000 16.000000
v -16.000000 -2.000000 -16.000000
v -16.000000 2.000000 -16.000000
v 16.000000 -2.000000 16.000000
v 16.000000 2.000000 16.000000
v 16.000000 -2.000000 -16.000000
v 16.000000 2.000000 -16.000000
vt 1.000000 -0.000000
vt 1.000000 0.031250
vt 0.000000 0.031250
vt -0.000000 0.000000
vt 0.031250 0.000000
vt 0.031250 1.000000
vt -0.000000 1.000000
vt 0.000000 0.968750
vt 1.000000 0.968750
vt 1.000000 1.000000
vt 0.968750 1.000000
vt 0.968750 -0.000000
vt -0.000000 1.000000
vt 0.000000 -0.000000
vt 1.000000 0.000000
vt 1.000000 1.000000
vn -1.0000 0.0000 0.0000
vn 0.0000 0.0000 -1.0000
vn 1.0000 0.0000 0.0000
vn 0.0000 0.0000 1.0000
vn 0.0000 -1.0000 0.0000
vn 0.0000 1.0000 0.0000
usemtl Material.001
s off
f 1/1/1 2/2/1 4/3/1 3/4/1
f 3/4/2 4/5/2 8/6/2 7/7/2
f 7/7/3 8/8/3 6/9/3 5/10/3
f 5/10/4 6/11/4 2/12/4 1/1/4
f 3/4/5 7/7/5 5/10/5 1/1/5
f 8/13/6 4/14/6 2/15/6 6/16/6
