# Blender v2.91.0 OBJ File: ''
# www.blender.org
mtllib tile middle.mtl
o Cube_Cube.006
v -16.000000 -0.000006 16.000000
v -16.000000 0.000006 -16.000000
v 16.000000 0.000006 -16.000000
v 16.000000 -0.000006 16.000000
v -16.000000 2.000006 -16.000000
v 16.000000 2.000006 -16.000000
v 16.000000 1.999994 16.000000
v -16.000000 1.999994 16.000000
vt 1.000000 0.000000
vt 0.000000 0.000000
vt -0.000000 1.000000
vt 1.000000 1.000000
vt 0.031250 0.000000
vt 0.031250 1.000000
vt 0.968750 1.000000
vt 0.968750 0.000000
vt 1.000000 0.031250
vt 0.000000 0.031250
vt -0.000000 0.968750
vt 1.000000 0.968750
vt -0.000000 1.000000
vt 0.000000 -0.000000
vt 1.000000 0.000000
vt 1.000000 1.000000
vn 0.0000 -1.0000 -0.0000
vn 0.0000 0.0000 -1.0000
vn 0.0000 0.0000 1.0000
vn -1.0000 0.0000 0.0000
vn 1.0000 0.0000 0.0000
vn 0.0000 1.0000 0.0000
usemtl Material.006
s off
f 1/1/1 2/2/1 3/3/1 4/4/1
s 1
f 5/5/2 6/6/2 3/3/2 2/2/2
f 1/1/3 4/4/3 7/7/3 8/8/3
f 1/1/4 8/9/4 5/10/4 2/2/4
f 6/11/5 7/12/5 4/4/5 3/3/5
f 6/13/6 5/14/6 8/15/6 7/16/6
