# Blender v2.91.0 OBJ File: ''
# www.blender.org
mtllib tile corner.mtl
o Cube_Cube.001
v -16.000000 1.999997 16.000000
v -16.000000 2.000003 -16.000000
v -16.000000 -1.999997 -16.000000
v 16.000000 2.000003 -16.000000
v 16.000000 -1.999997 -16.000000
v 16.000000 1.999997 16.000000
v 16.000000 -2.000003 16.000000
v -16.000000 -0.000003 16.000000
v -16.000000 2.000000 0.000000
v -16.000000 0.000000 0.000000
v 0.000000 -0.000003 16.000000
v 0.000000 1.999997 16.000000
vt -0.000000 1.000000
vt 0.000000 -0.000000
vt 0.500000 0.000000
vt 1.000000 0.000000
vt 1.000000 0.500000
vt 1.000000 1.000000
vt 0.000000 0.000000
vt 0.000000 0.000000
vt 0.000000 0.000000
vt 0.000000 0.000000
vt 0.000000 0.000000
vt 0.000000 0.000000
vn 0.0000 1.0000 0.0000
vn -0.5834 -0.5651 0.5834
vn -1.0000 -0.0000 0.0000
vn -0.7282 -0.6840 0.0438
vn -0.7071 0.0000 -0.7071
vn -0.5711 -0.6154 -0.5433
vn 0.0000 0.0000 1.0000
vn -0.0438 -0.6840 0.7282
vn 0.5433 -0.6154 0.5711
vn 0.7071 0.0000 0.7071
vn -0.0496 -0.9975 0.0496
vn 0.7071 0.0000 -0.7071
usemtl Material.002
s 1
f 4/1/1 2/2/1 9/3/1 1/4/1 12/5/1 6/6/1
f 8/7/2 1/4/3 9/3/3 10/8/4
f 9/3/3 2/2/5 3/9/6 10/8/4
f 12/5/7 11/10/8 7/11/9 6/6/10
f 1/4/7 8/7/2 11/10/8 12/5/7
f 7/11/9 11/10/8 5/12/11
f 5/12/11 10/8/4 3/9/6
f 5/12/11 11/10/8 8/7/2 10/8/4
f 6/6/10 7/11/9 5/12/12 4/1/12
f 4/1/12 5/12/12 3/9/6 2/2/5
